/* XPM */
static char *_10c4bb2be734cc48e190bea128265799ITkdhRQnrbxs59W[] = {
/* columns rows colors chars-per-pixel */
"32 32 7 1 ",
"  c #805E36",
". c #8B673C",
"X c #997140",
"o c #664D28",
"O c #6B5332",
"+ c #5B5B5B",
"@ c gray48",
/* pixels */
" ..X.XXXXXXX.XXXXXXX.XXXXXXX... ",
".ooOOoooooOo OOOOoooOo OooOoooo.",
".oOOOOOOOOO ........ o OOOOOOOo.",
".oOOOOOOO  ..X....X..  OOOOOOOOX",
"XOOOOOO .. X.X....X.. .. OOOOOO.",
"XoOOOO ..X X...X..... X.. OOOOoX",
"XoOOO .... X.X.X...X...... OOOOX",
"XoOO ..X.....X.X.X.XX.X.... OOOX",
"XOOO...X.X..X....X..X X.X...OOoX",
"XOO .X......X..X.X..X.X.X... OoX",
"XoO..X.X...XX..X.XX.X.XXX....OOX",
".o ..X.X.X XX..XXXXXX..X..X.. oX",
"XO...XXX.X .X.XX.XXXX..X.XX.X. .",
"Xo.X.X.XXX..X.XX.XX.X..XX.X.X.OX",
"X .XXXXX.X XX.XX.XX.X .XX.XXX.oX",
"XO.XX.X... .X.XXXXX.X XXXXX.X.oX",
"Xo.XX..++  .XXXX.XX.X .XXXX.X.oX",
"Xo.XX.@@++ .XX.XXXXXX XX.XX.X.OX",
"Xo..X.@@@+ XXX.XXX.XX.XX.X.XX.OX",
".o..X. @@  XXXXXXX.X. XX.X.X..oX",
"XO ....  ..X.XXX.XXX. .XXX.X.  .",
"Xoo.X..XX. X.X.X..X....X.X...OOX",
"X   ..XXXX.X.X....X....X.X.. OOX",
"XOOO...X.X.XXXX.X..X..XX....OOOX",
"XoOO ..X...XX.X.X..X...X... OOoX",
"XoOOO ...X .X.X.X......X.. OOOoX",
"XOOOOO ..X .X.....X.. ... OOOOoX",
".OOOOOO .. ..X..X.X.. X. OOOOOOX",
"XoOOOOOOO  ..X....X..  OOOOOOOO.",
".oOOOOOOOOO ........ OOOOOOOOOo.",
".oooOOooooOo OoOOo OooooOOOoOoo.",
" ...XXXXXXX.XXXXXXX.XXXXXXX.X.. "
};
