/* XPM */
static char *_a6b7f2c75c64554f6e67d7358d2405evzLqE47y3aPgVpKS[] = {
/* columns rows colors chars-per-pixel */
"32 32 8 1 ",
"  c #805E36",
". c #8B673C",
"X c #997140",
"o c #664D28",
"O c #6B5332",
"+ c #463112",
"@ c #38260C",
"# c #2F1F09",
/* pixels */
" ..X.XXXXXXX.XXXXXXX.XXXXXXX... ",
".ooOOooooOo OOOoooOo OooOoooooo.",
".oOOOOOOOOo oooooooo OOOOOOOOOo.",
".oOOOOOOOooo++++++++oooOOOOOOOoX",
"XOOOOOOoo++++@####@++++ooOOOOOO.",
"XoOOOOo+++@##########@+++oOOOOOX",
"XoOOOo++@##############@++oOOOOX",
"XoOOo++@################@++oOOOX",
"XOOOo+@##################@+oOOoX",
"XOOo++####################++oOOX",
"Xooo+@####################@+oooX",
".  o+######################+o  X",
"Xoo++######################++oO.",
"Xoo+@######################@+ooX",
"Xoo+########################+ooX",
"Xoo+########################+ooX",
"Xoo+########################+ooX",
"XOo+########################+oOX",
"XOo+@######################@+oOX",
".oo++######################++ooX",
"X  o+######################+o  .",
"XoOo+@####################@+oOOX",
"XOOo++####################++oOoX",
"XOOOo+@##################@+oOOoX",
"XoOOo++@################@++oOOoX",
"XoOOOo++@##############@++oOOOOX",
"XoOOOOo+++@##########@+++oOOOOOX",
".oOOOOOoo++++@####@++++ooOOOOOOX",
"XOOOOOOOOooo++++++++oooOOOOOOOo.",
".oOOOOOOOOo oooooooo OOOOOOOOOo.",
".ooooOOooOo ooOoOooo oooooOOOoo.",
" ...XXXXXXX.XXXXXXX.XXXXXXX.X.. "
};
