/* XPM */
static char *fc8cca5ec9ec4ea0c424283f8e98b5eeQWqdE0S2E0d4yv28[] = {
/* columns rows colors chars-per-pixel */
"32 32 132 2 ",
"   c #3E413F",
".  c #584222",
"X  c #52402F",
"o  c #524731",
"O  c #534831",
"+  c #534C3F",
"@  c #664D28",
"#  c #674C3A",
"$  c #6B5332",
"%  c #6D513C",
"&  c #7F5D36",
"*  c #73553F",
"=  c #765C3F",
"-  c #7B5F3D",
";  c #2A3241",
":  c #363C48",
">  c #3D464E",
",  c #3F4B4E",
"<  c #2D445D",
"1  c #344A5F",
"2  c #374D65",
"3  c #384E67",
"4  c #3C536D",
"5  c #3E5771",
"6  c #3E5873",
"7  c #4E4A42",
"8  c #464E4E",
"9  c #4C4E4A",
"0  c #534D41",
"q  c #535044",
"w  c #5C5346",
"e  c #54524B",
"r  c #5B554D",
"t  c #4A545B",
"y  c #545453",
"u  c #5E5951",
"i  c #525A5C",
"p  c #5C5D5B",
"a  c #625744",
"s  c #6B5B45",
"d  c #605648",
"f  c #63594D",
"g  c #735541",
"h  c #765E40",
"j  c #645E53",
"k  c #776144",
"l  c #7B6142",
"z  c #6C6254",
"x  c #62605B",
"c  c #6D655A",
"v  c #706555",
"b  c #736A5C",
"n  c #465568",
"m  c #485769",
"M  c #49596B",
"N  c #545C63",
"B  c #5A5F62",
"V  c #415872",
"C  c #455E7A",
"Z  c #47617C",
"A  c #49627E",
"S  c #61666C",
"D  c #6C7277",
"F  c #6E757B",
"G  c #805E36",
"H  c #84633B",
"J  c #8B673C",
"K  c #966F3F",
"L  c #98703F",
"P  c #836642",
"I  c #876943",
"U  c #8D6B42",
"Y  c #956F41",
"T  c #977243",
"R  c #997140",
"E  c #476482",
"W  c #4C6683",
"Q  c #4D6987",
"!  c #4F6B89",
"~  c #506A87",
"^  c #526D8A",
"/  c #54718F",
"(  c #5B738D",
")  c #577391",
"_  c #597593",
"`  c #5F7996",
"'  c #5F7A98",
"]  c #747D89",
"[  c #637A93",
"{  c #6C829B",
"}  c #73859B",
"|  c #6C87A3",
" . c #718AA4",
".. c #788CA4",
"X. c #758FA9",
"o. c #7792AE",
"O. c #7A94AE",
"+. c #7B96B2",
"@. c #7E99B4",
"#. c #829BB6",
"$. c #889BB2",
"%. c #849EB9",
"&. c #87A2BD",
"*. c #89A3BE",
"=. c #91A3B8",
"-. c #96A9BF",
";. c #8BA6C1",
":. c #8FA8C2",
">. c #93ABC4",
",. c #98ADC4",
"<. c #96AFC8",
"1. c #99B0C7",
"2. c #9DB4CB",
"3. c #A6BAD0",
"4. c #AABDD3",
"5. c #AEC1D5",
"6. c #B0C2D6",
"7. c #B1C3D8",
"8. c #B2C4D8",
"9. c #B2C5D9",
"0. c #B4C6DA",
"q. c #B1C3D8",
"w. c #B6C8DB",
"e. c #B8C9DC",
"r. c #B9CADD",
"t. c #BBCCDF",
"y. c #BCCCDF",
"u. c #BFCFE2",
"i. c #C0D1E3",
"p. c #C4D4E6",
"a. c #D1DFF0",
"s. c #D2E0F1",
/* pixels */
"G J J R J R R R R R R R J R R R R R R R J R R R R R R R J J J G ",
"J @ @ $ $ @ @ @ @ @ $ @ G $ $ $ $ @ @ @ $ @ G $ @ @ $ @ @ @ @ J ",
"J @ $ $ $ $ $ $ $ $ $ G J J J J J J J J G @ G $ $ $ $ $ $ $ @ J ",
"J @ $ $ $ $ $ $ $ G G J J R J J J H e 9 = G & $ $ $ $ $ $ $ $ R ",
"R $ $ $ $ $ $ G J J G R J R J J , S $.$.] % J J G $ $ $ $ $ $ J ",
"R @ $ $ $ $ G J J R G R J J J i *.-.7.4.{ q R J J G $ $ $ $ @ R ",
"R @ $ $ $ G J J J J G R J R t -.5.5.3.X.p J J J J J G $ $ $ $ R ",
"R @ $ $ G J J R J J J J J i -.5.4.5.=.8 R J R J J J J G $ $ $ R ",
"R $ $ $ J J J R J U - H i *.5.4.4.3. .  R G R J R J J J $ $ @ R ",
"R $ $ G J R J h s Q ^ ( O.>.3.4.:.:.X.B T J R J R J J J G $ @ R ",
"R @ $ J J R % ^ } <.2.5.4.4.4.4.4.4.<.O.b J R R R J J J J $ $ R ",
"J @ G J J * } 1.5.4.6.y.t.y.4.3.4.4.6.>.F c J R J J R J J G @ R ",
"R $ J J # } 3.4.5.u.p.a.a.s.p.i.4.4.5.2.+.X.D x J R R J R J G J ",
"R @ J g } 3.4.4.5.a.a.p.0.w.r.r.5.4.>.:.*.;.@.~ B J R J R J $ R ",
"R G s ( 1.5.4.4.4.8.8.5.4.4.4.>.:.;.&.&.*.*.*.#.! N R R R J @ R ",
"R $ w ..5.4.4.4.4.4.4.2.*.;.;.&.&.&.*.&.&.&.&.*.%.! B J R J @ R ",
"R O / 1.5.4.4.: ; ;.*.*.&.&.*.*.%.&.O./ _ _ ) #.&.#.W p R J @ R ",
"R o _ 2.5.4.:.n m *.*.*.*.;.%.#._ ) ) _ ) ) ) / _ @._ N Y J $ R ",
"R X { 7.3.;.&.;.:.;.&.+.+.o.^ A W W W ^ _ ) ) ) ) ' o.E z J $ R ",
"J . [ 8.<.&.;.;.o.o.| ^ / C < r f r e N A ^ _ ) ) ) / ^ B j 9 R ",
"R N -.3.:.;.o.[ 6 C ) _ ) _ W u d R R I w M C ) ) ) ) ) ^ W Q N ",
"S ,.6.2.o.( V a k f 5 W _ _ _ ~ W y R J J h s V _ ) ) ) _ _ Z v ",
"W 7.3.@.A w P R R L - j 4 4 4 4 4 l R J J J J P 5 ) ) ) _ C 0 R ",
"A %.` W r J J R J R J Y U U U H U J J R J J R R 2 _ ) _ C 0 $ R ",
"U 1 1 9 G J J R J J J R R J R J R J J R J J J K 3 _ _ A 0 $ @ R ",
"R @ $ $ $ G J J J R G J R J R J R J J J J J J K 3 ) A 7 $ $ @ R ",
"R $ $ $ $ $ G J J R G J R J J J J J R J J G J J 4 ^ > $ $ $ @ R ",
"J $ $ $ $ $ $ G J J G J J R J J R J R J J G R J y Z 0 $ $ $ $ R ",
"R @ $ $ $ $ $ $ $ G G J J R J J J J R J J G G $ $ + $ $ $ $ $ J ",
"J @ $ $ $ $ $ $ $ $ $ G J J J J J J J J G $ $ $ $ $ $ $ $ $ @ J ",
"J @ @ @ $ $ @ @ @ @ $ @ G $ @ $ $ @ G $ @ @ @ @ $ $ $ @ $ @ @ J ",
"G J J J R R R R R R R J R R R R R R R J R R R R R R R J R J J G "
};
