/* XPM */
static char *ec357a25c61f461f8979050d9230838ba4BBVaBwBX8Nfxxg[] = {
/* columns rows colors chars-per-pixel */
"32 32 126 2 ",
"   c #2A3241",
".  c #363C48",
"X  c #2D445D",
"o  c #364D69",
"O  c #384F6A",
"+  c #3B536D",
"@  c #3E5773",
"#  c #3E5873",
"$  c #465568",
"%  c #485769",
"&  c #415973",
"*  c #455E7A",
"=  c #47617C",
"-  c #48627E",
";  c #3F5E97",
":  c #3F6298",
">  c #465E89",
",  c #476482",
"<  c #4B6683",
"1  c #4D6987",
"2  c #4F6B89",
"3  c #506A87",
"4  c #526D8A",
"5  c #54718F",
"6  c #5B728C",
"7  c #4F6990",
"8  c #577391",
"9  c #597593",
"0  c #5F7996",
"q  c #5F7A98",
"w  c #637A93",
"e  c #4069A7",
"r  c #4E6EA3",
"t  c #566FA2",
"y  c #4C70A8",
"u  c #5572A6",
"i  c #5973A4",
"p  c #5C76AC",
"a  c #4B72B4",
"s  c #5773B2",
"d  c #5C77B5",
"f  c #5D79B3",
"g  c #5C7BBB",
"h  c #607AAB",
"j  c #627CB6",
"k  c #637EBC",
"l  c #597FC7",
"z  c #5B7FC9",
"x  c #697ECE",
"c  c #667CD1",
"v  c #6C829B",
"b  c #70859E",
"n  c #6C87A3",
"m  c #7186A1",
"M  c #748AA4",
"N  c #788CA4",
"B  c #748DAA",
"V  c #7792AE",
"C  c #7A94AE",
"Z  c #6986B8",
"A  c #6C88B9",
"S  c #7B96B2",
"D  c #7E99B4",
"F  c #6682C3",
"G  c #6A84C4",
"H  c #6C89CA",
"J  c #708ACD",
"K  c #6A80D7",
"L  c #698CD5",
"P  c #6D8ED9",
"I  c #718ADD",
"U  c #7393DF",
"Y  c #7993DD",
"T  c #7592E3",
"R  c #7A96E4",
"E  c #7B97EE",
"W  c #7D9AEE",
"Q  c #7F9BF0",
"!  c #829BB6",
"~  c #889BB2",
"^  c #849EB9",
"/  c #87A2BD",
"(  c #89A3BE",
")  c #91A3B8",
"_  c #96A9BF",
"`  c #8BA6C1",
"'  c #8FA8C2",
"]  c #93ABC4",
"[  c #98ADC4",
"{  c #96AFC8",
"}  c #99B0C7",
"|  c #9DB4CB",
" . c #A6BAD0",
".. c #AABDD3",
"X. c #829EEF",
"o. c #839FF6",
"O. c #87A2F7",
"+. c #86A3FD",
"@. c #88A5FF",
"#. c #8DA9FF",
"$. c #ADC0D4",
"%. c #AEC0D5",
"&. c #AFC1D5",
"*. c #ADC0D6",
"=. c #AEC1D6",
"-. c #AFC1D6",
";. c #AEC2D7",
":. c #AFC2D7",
">. c #B0C2D6",
",. c #B0C3D8",
"<. c #B1C3D8",
"1. c #B1C3D9",
"2. c #B2C4D8",
"3. c #B2C5D9",
"4. c #B4C6DA",
"5. c #B1C3D8",
"6. c #B6C8DB",
"7. c #B8C9DC",
"8. c #B9CADD",
"9. c #BBCCDF",
"0. c #BCCCDF",
"q. c #BFCFE2",
"w. c #C0D1E3",
"e. c #C4D4E6",
"r. c #D1DFF0",
"t. c #D2E0F1",
/* pixels */
"@.#.#.#.#.#.@.@.@.@.@.@.#.#.#.#.#.#.@.@.@.#.#.#.#.#.#.#.#.#.#.@.",
"#.#.#.#.#.#.#.#.@.@.@.@.@.@.#.#.#.#.#.#.@.@.@.#.#.#.#.#.#.#.#.#.",
"#.#.#.#.#.#.#.#.#.#.#.#.#.#.@.#.#.#.#.@.@.@.#.@.#.@.#.@.@.@.@.@.",
"@.@.#.#.#.#.#.#.#.#.#.#.#.#.#.#.#.O.a a R #.#.#.#.#.@.#.#.@.@.@.",
"@.@.@.@.#.@.#.#.#.#.#.#.#.#.@.@.e h ~ ~ B T #.#.#.#.#.#.#.#.#.#.",
"@.@.@.#.#.#.#.#.#.#.#.#.#.@.#.r ( _ <...v l #.@.#.#.#.@.@.@.@.@.",
"@.#.#.#.#.#.#.#.#.#.#.#.#.#.r _ $.$. .B f +.@.@.@.@.@.@.@.@.#.#.",
"@.@.@.#.#.#.#.#.@.@.#.#.#.r _ $...$.) : @.#.@.#.#.#.@.@.#.#.#.@.",
"#.#.#.#.#.#.@.@.@.W E o.y ( $..... .M ; #.#.#.#.@.@.#.#.#.@.@.@.",
"#.#.#.#.#.#.@.T L 1 4 6 C ]  ...' ' B i @.#.#.#.#.@.@.#.#.#.@.#.",
"@.#.#.#.@.@.K 4 b { | $.............{ C H @.@.@.@.#.#.#.@.#.#.@.",
"#.#.#.@.#.x m } $...>.0.9.0... .....>.] Z H +.#.#.#.#.#.#.@.@.@.",
"#.#.@.#.x M  ...$.q.e.r.r.t.e.w.....$.| S B A f #.#.#.#.#.#.#.#.",
"#.#.#.c M  .....$.r.r.e.4.6.8.8.$...] ' ( ` D 3 u #.#.#.#.#.#.#.",
"@.#.P 9 } $.......2.2.$.......] ' ` / / ( ( ( ! 2 u #.#.@.#.@.@.",
"@.@.z N $.............| ( ` ` / / / ( / / / / ( ^ 2 u #.#.#.#.#.",
"@.T 5 } $......   ` ( ( / / ( ( ^ / C 5 9 9 8 ! / ! < f #.@.@.@.",
"#.U 9 | $...' $ % ( ( ( ( ` ^ ! 9 8 8 9 8 8 8 5 9 D 9 u O.@.@.#.",
"#.I v <. .` / ` ' ` / S S V 4 - < < < 4 9 8 8 8 8 q V , F #.#.#.",
"#.Y w 2.{ / ` ` V V n 4 5 * X t p t t 7 - 4 9 8 8 8 5 4 i F k #.",
"@.p _  .' ` V w # * 8 9 8 9 < i j #.#.R d < * 8 8 8 8 9 4 < 1 u ",
"i [ <.| V 6 & g J k @ < 9 9 9 3 < t #.@.#.Y H & 9 8 8 8 9 9 = G ",
"< <. .D - s T @.@.@.R p + + + + @ R @.@.@.@.#.Y @ 8 8 8 9 * G #.",
"< ^ 0 < p #.#.#.@.@.@.O.W W X.W Q @.#.#.#.@.@.@.o 9 8 9 * F @.@.",
"X.+ o p #.#.#.#.#.#.#.#.@.@.@.#.#.@.@.@.#.#.#.+.O 9 9 - k @.@.@.",
"@.@.@.#.#.#.#.#.#.#.#.#.#.#.#.#.#.#.@.@.@.@.#.+.O 8 - d #.#.@.@.",
"@.@.@.@.@.@.@.@.@.@.#.#.#.#.#.#.#.@.@.#.#.#.#.#.+ 4 > #.@.#.#.#.",
"@.@.#.#.#.#.#.@.@.@.@.@.#.#.#.#.#.#.#.#.#.#.#.@.i = F @.#.@.@.@.",
"#.#.#.#.#.#.#.#.#.#.#.@.@.#.@.#.#.#.#.#.#.@.@.#.#.G #.#.#.#.#.#.",
"#.#.#.#.#.#.@.@.#.#.#.#.#.#.#.#.#.@.@.#.#.#.#.@.@.#.@.#.#.#.#.#.",
"#.#.#.@.@.@.@.@.@.@.@.#.#.#.#.#.#.#.@.@.@.@.@.@.@.@.@.@.@.@.#.#.",
"@.@.@.@.@.#.#.@.@.#.#.#.#.#.@.@.@.@.@.#.#.#.@.@.@.@.#.#.@.@.@.@."
};
