/* XPM */
static char *_739c26674934874970a347560fd7ca2SnfRKxsna4hek8ey[] = {
/* columns rows colors chars-per-pixel */
"32 32 19 1 ",
"  c #88A5FF",
". c #8CA8FF",
"X c #8FABFF",
"o c #FBA70C",
"O c #D8951A",
"+ c #915B15",
"@ c #FFC908",
"# c #429BBA",
"$ c #BF841B",
"% c #7EA8BD",
"& c #B67826",
"* c #83500E",
"= c #358AA8",
"- c gray98",
"; c #1D2C26",
": c #EECF9B",
"> c #D2A44D",
", c #FCE5BC",
"< c #DEBD85",
/* pixels */
" .....      .X....   .....XXXX. ",
"XX..X...      .XX...   .XXX....X",
".XX..XX....... .XXX  .. . .     ",
"  ....XXXXXX.Xo..o.oXXX... ..   ",
"    . ...XXo.O++O+O+o.XX.X......",
"   ........O+o@@@oOo++O ...##   ",
" .XXX.XX.o+o@@@@@@oOOO++$ #%##..",
"   .XX..o+o@@@@@@oOOOOo$+.##%#. ",
"..XX..  +Ooo@@@@oOOoO$O$&*#%%=  ",
"..XXX.O+oOOoooooOO$OOO$O$##%#= .",
" X..  +$O$oOOOoOOO--;;$$&=%#=.. ",
".XX..O+OOOO$OO$OoO--;;o$O===$   ",
"X. ..+O$;;--OOOO$OO$$O$&$&=&+..X",
".## O+$$;;--$oO$O$$O$$$$$O&$*$XX",
"#%%#+&$oO$$O&&$&$$&$&O$$&$O&$*  ",
"#%##*O&$$$$$$O::::O$$$$&&&&&&+$.",
"=#%=#$$$$O&$O:;;;;:O&&>:,:>$&*  ",
"X==#=&$O&$$$:;;;;;;>>:,>:,::>+$.",
"..===&O&$$&&:>;;;;>>:>:,,:>::*..",
"..  *&$$&>:,,:>>>>>:,,,:,::>>* .",
"   .&*&>:,,:>,,::::,,:,,:>>:*$  ",
". ...+>:,,:,,,:,,>,::,:,:::>*  .",
"     &*,:,::,:,:,,:,,:,>:>:*$...",
"    ..+:,:,,,,,:,:,:,,::>:>*    ",
".XX.XX<*:,,:,:,,,:,,>:>:::*>    ",
"   ...XX>:>,:,,:,,:::::>:*  ..  ",
"        <+:::::>:>:>:>:>*>......",
"  .....   >:>:>::>::>:**>.  .   ",
"....XXX.X.<>*:>:>::>**>.XX.XXX..",
"X.XXX.  ..X<X>**+*>*>..  ....XXX",
"...        .XX>.>. >          ..",
"     ..  .....     ...    ..    "
};
