/* XPM */
static char *b144f239e5044505bddd0102934f5caca5EX3lw0TinDM5qR[] = {
/* columns rows colors chars-per-pixel */
"32 32 7 1 ",
"  c #5A595A",
". c gray39",
"X c #6A6D6A",
"o c #787678",
"O c gray50",
"+ c #8B898B",
"@ c #9C999C",
/* pixels */
"+@@@@@@@@@@@@@@@@@@@@@@@@@@+@@+ ",
"@+++++++++++++++++++++++++OO+OO ",
"@+++OO++++O++OOO+++OoOOO+OOOOOo ",
"@OO++OOOOOOOOOO+OO++OoOOOOOOO+o ",
"@++OOOO++OOoO+OOOooOOOOooOOooOo ",
"@O++O+++OOOO++OOoOOOO+++OOoOOoX ",
"@OooOO+OOOooOOOOO+O+++OOOOoooXX ",
"@ooOOOO++OOoooOOOO++OOoooOOOoXo ",
"@OoooOOOO+OOOOooOOOOooooOOooooX ",
"@oOoXXoOOOOOOooOO+OOOOOoooXXooo ",
"+oXXXooOooO++OOOOOOOOoOOooooooO ",
"+oooOOooooooOOOooOOooooooOOoooO ",
"OoXXoooOOOoOOOoooooOOoooXXOOooO ",
"oXXoXooooOOoooXXooooooXXXoooXoo ",
"XXXXXXXXXXXXXXXXXXXXXXXXXXXXXXX ",
"...   .... .     ..   .......  .",
"@@@@@@@@@@@+@@+ +@@@@@@@@@@@@@@@",
"++++++++++O++OO @+++++++++++++++",
"+++OO+OO+OOOOOo @+++OO++++O++OOO",
"OO++OooO++OOO+o @OOO+OOO+OOOOOO+",
"OO+OoOO++OOooOo @++OOOO++OOoO+OO",
"oOOOOO++OooOOoX @OOOO+++OOOO++OO",
"O+O+++OOOOoooXX @OooOOOOOOooOOOO",
"OO++OOoooOOOoXo @ooOOOO++OOoooOO",
"OOOOooooOOooooX @OoooOOOO+OOOOoo",
"O+OOOOOoooXXooo @oOoXXoOOOOOOooO",
"OOOOOoOOooooooO +oXXXooOooO++OOO",
"oOOooooooOOoooO +oooOOooooooOOOo",
"oooOOoooXXOOooO OoXXoooOOOoOOOoo",
"ooooooXXXoooXoo oXXoXooooOOoooXX",
"XXXXXXXXXXXXXXX XXXXXXXXXXXXXXXX",
"............      .   .........."
};
