/* XPM */
static char *_ac54355990149ae8a87baef14dc83242oPZ2SC0VSZpdKz7[] = {
/* columns rows colors chars-per-pixel */
"32 32 3 1 ",
"  c #88A5FF",
". c #8CA8FF",
"X c #8FABFF",
/* pixels */
" .....      .X....   .....XXXX. ",
"XX..X...      .XX...   .XXX....X",
".XX..XX....... .XXX  .. . .     ",
"  ....XXXXXX.XX.....XXX... ..   ",
"    . ...XX...  .    .XX.X......",
"   ........X. ......  . ...     ",
" .XXX.XX.XXXXX..XX.           ..",
"   .XX..  ...XXXX.   . ...  ... ",
"..XX..      ..     .....  ...   ",
"..XXX.  ...     ..  .....  ... .",
" X..   .. ..  ...XX..    .X. .. ",
".XX...   .....XXX.    ..XXX..   ",
"X. ..   ..   ..X.  ........XX..X",
"...        .X.XX..   .  ..XXXXXX",
" .... ..XX....X.   ......XX. .  ",
"    .XXXX....XX.  .X..XX.  .....",
" ..XXX....XXX.........    ...   ",
"XX......XXX...XX..     ...     .",
"......   .  ....XX....XX... ....",
"..  .  .  ..XX...XXXX..XXX.X.. .",
"   .XXXX.. ..XXXX...  .XX.      ",
". .....XX..XXXX. .X .XX....    .",
"      .   ....        ..     ...",
"    ....      .   ...     ..    ",
".XX.XXXX....   ..   .......     ",
"   ...XXXX.XX.....    ...   ..  ",
"          ...XXX.  ....XX.......",
"  .....     ...XXXX.XX....  .   ",
"....XXX.X..  . ...XX.  .XX.XXX..",
"X.XXX.  ..XXX..X.  ....  ....XXX",
"...        .XXX...            ..",
"     ..  .....     ...    ..    "
};
